<?xml version="1.0" encoding="UTF-8" standalone="no"?>
<!DOCTYPE svg PUBLIC "-//W3C//DTD SVG 1.1//EN" "http://www.w3.org/Graphics/SVG/1.1/DTD/svg11.dtd">
<svg width="100%" height="100%" viewBox="0 0 16 16" version="1.1" xmlns="http://www.w3.org/2000/svg" xmlns:xlink="http://www.w3.org/1999/xlink" xml:space="preserve" xmlns:serif="http://www.serif.com/" style="fill-rule:evenodd;clip-rule:evenodd;stroke-linejoin:round;stroke-miterlimit:2;">
    <path d="M8,1C11.863,1 15,4.137 15,8C15,11.863 11.863,15 8,15C4.137,15 1,11.863 1,8C1,4.137 4.137,1 8,1ZM8,3C10.76,3 13,5.24 13,8C13,10.76 10.76,13 8,13C5.24,13 3,10.76 3,8C3,5.24 5.24,3 8,3Z" style="fill:rgb(255,116,119);"/>
    <g transform="matrix(0.707107,0.707107,-0.696111,0.696111,7.5887,-2.90241)">
        <rect x="7" y="1.071" width="2" height="12.929" style="fill:rgb(255,116,119);"/>
    </g>
</svg>
